<?xml version="1.0" encoding="UTF-8" standalone="no"?>
<svg
   width="70.23246"
   height="70.319"
   viewBox="0 0 70.23246 70.319"
   fill="none"
   version="1.1"
   id="svg14"
   sodipodi:docname="f122-countdown-logo (1).svg"
   inkscape:version="1.1.1 (3bf5ae0d25, 2021-09-20)"
   xmlns:inkscape="http://www.inkscape.org/namespaces/inkscape"
   xmlns:sodipodi="http://sodipodi.sourceforge.net/DTD/sodipodi-0.dtd"
   xmlns="http://www.w3.org/2000/svg"
   xmlns:svg="http://www.w3.org/2000/svg">
  <defs
     id="defs18" />
  <sodipodi:namedview
     id="namedview16"
     pagecolor="#ffffff"
     bordercolor="#111111"
     borderopacity="1"
     inkscape:pageshadow="0"
     inkscape:pageopacity="0"
     inkscape:pagecheckerboard="1"
     showgrid="true"
     fit-margin-top="0"
     fit-margin-left="0"
     fit-margin-right="0"
     fit-margin-bottom="0"
     inkscape:zoom="2"
     inkscape:cx="-60.25"
     inkscape:cy="44.75"
     inkscape:window-width="1920"
     inkscape:window-height="1001"
     inkscape:window-x="-9"
     inkscape:window-y="-9"
     inkscape:window-maximized="1"
     inkscape:current-layer="svg14">
    <inkscape:grid
       type="xygrid"
       id="grid1094" />
  </sodipodi:namedview>
  <path
     d="M 61.371,0 H 8.86 C 8.771,0 0,0.1123 0,8.8713 v 52.5766 c 0,0.0898 0.112,8.8711 8.86,8.8711 h 52.511 c 0.089,0 8.86,-0.112 8.86,-8.8711 V 8.8713 C 70.253,8.7815 70.141,0 61.371,0 Z m 7.133,61.4703 c 0,6.9847 -6.842,7.1417 -7.133,7.1417 H 8.86 c -6.976,0 -7.133,-6.8497 -7.133,-7.1417 V 8.8713 c 0,-6.9623 6.819,-7.142 7.133,-7.142 h 52.511 c 6.976,0 7.133,6.85 7.133,7.142 z"
     fill="#000000"
     id="path6" />
  <path
     d="m 22.341,32.9923 v 4.2447 h 1.122 v -4.3346 c 0,-0.6288 0.247,-0.831 0.897,-0.831 h 1.727 v -0.9657 h -1.682 c -1.189,0 -2.064,0.6513 -2.064,1.8866 z m -4.463,-2.0214 c -1.907,0 -2.759,0.9882 -2.759,2.6951 v 1.0107 c 0,1.7293 0.852,2.6951 2.759,2.6951 h 0.762 c 1.817,0 2.759,-0.9882 2.759,-2.6951 V 33.666 c 0,-1.7293 -0.942,-2.6951 -2.759,-2.6951 z m 2.377,2.5604 v 1.3026 c 0,1.1005 -0.336,1.5721 -1.458,1.5721 h -1.054 c -1.032,0 -1.435,-0.4716 -1.435,-1.5721 v -1.3026 c 0,-1.1005 0.403,-1.5722 1.435,-1.5722 h 1.054 c 1.099,-0.0224 1.458,0.4717 1.458,1.5722 z M 39.77,37.237 h 3.454 v -6.1313 h -1.121 v 5.1207 H 39.68 c -0.718,0 -1.009,-0.2471 -1.009,-1.0556 v -4.0651 h -1.122 v 3.9303 c 0.023,1.4599 0.696,2.201 2.221,2.201 z m 15.118,-1.0106 v 1.0331 h 5.541 V 36.2264 H 58.387 V 30.926 c 0,-0.9208 -0.381,-1.3475 -1.3,-1.3475 h -1.952 v 1.0331 h 1.772 c 0.202,0 0.314,0.1123 0.314,0.3369 v 5.3003 h -2.333 z m 6.617,1.0106 v -0.8534 h 0.314 v -0.1572 h -0.83 v 0.1572 h 0.337 v 0.8534 z m 1.503,0 v -1.0106 h -0.269 l -0.269,0.786 -0.269,-0.786 h -0.269 v 1.0106 h 0.179 v -0.786 l 0.292,0.786 h 0.134 l 0.292,-0.786 v 0.786 z M 14.334,30.5891 V 29.5785 H 8.502 v 7.6585 h 1.166 v -3.3688 h 4.666 V 32.835 H 9.668 v -2.2459 z m 32.255,5.1881 c 0,1.0106 0.695,1.4598 1.862,1.4598 h 3.925 v -3.9079 c 0,-1.37 -0.762,-2.2234 -2.31,-2.2234 h -3.163 v 0.9657 h 3.768 l -2.714,1.954 c -0.852,0.6288 -1.368,1.1005 -1.368,1.7518 z m 4.688,-2.9197 v 3.3464 h -2.871 c -0.359,0 -0.651,-0.1348 -0.651,-0.4716 0,-0.3594 0.225,-0.4941 0.606,-0.7861 z M 36.406,37.237 v -4.0651 c 0,-1.2128 -0.673,-2.0662 -2.199,-2.0662 h -7.088 v 6.1313 h 1.122 v -5.1206 h 2.961 v 5.1206 h 1.121 v -5.1206 h 1.952 c 0.717,0 1.009,0.2246 1.009,1.0106 v 4.11 z m 9.196,-7.6585 h -1.121 v 7.681 h 1.121 z m 1.862,-13.7 H 30.237 c -4.576,0 -5.294,0.3594 -7.357,2.4256 l -5.294,5.3003 h 7.155 l 1.705,-1.7069 c 1.122,-1.1229 1.615,-1.2352 3.881,-1.2352 h 12.359 z"
     fill="#000000"
     id="path8" />
  <path
     d="m 22.252,17.7202 c 2.377,-2.3133 3.342,-2.6727 7.895,-2.6727 H 48.271 L 53.475,9.9269 H 29.452 c -6.079,0 -7.806,0.5839 -11.373,4.11 l -9.6,9.5226 h 7.716 z M 49.326,23.6044 63.008,9.9493 H 54.507 L 40.892,23.6044 Z M 61.371,43.009 H 8.883 c -0.157,0 -1.525,0.0898 -2.737,0.7636 -0.875,0.4941 -2.041,1.4374 -2.041,3.9977 v 13.6551 c 0,0.1572 0.09,1.5272 0.763,2.74 0.493,0.8759 1.435,2.0437 3.992,2.0437 h 52.488 c 0.157,0 1.503,-0.0898 2.737,-0.7636 0.875,-0.4941 2.041,-1.4373 2.041,-3.9977 V 47.7927 c 0,-0.1572 -0.09,-1.5272 -0.763,-2.74 C 64.892,44.1768 63.95,43.009 61.371,43.009 Z m 3.903,18.4613 c 0,2.0887 -0.808,2.8074 -1.615,3.2565 -1.055,0.584 -2.221,0.6514 -2.333,0.6514 H 8.86 c -2.086,0 -2.804,-0.8086 -3.252,-1.6171 C 5.025,62.7055 4.957,61.5377 4.957,61.4254 V 47.7927 c 0,-2.0886 0.808,-2.8073 1.615,-3.2565 1.055,-0.584 2.221,-0.6513 2.333,-0.6513 h 52.466 c 2.086,0 2.803,0.8085 3.252,1.617 0.583,1.0556 0.651,2.2235 0.651,2.3358 z"
     fill="#000000"
     id="path10" />
  <path
     d="M 14.087,52.2172 H 10.431 V 46.6249 H 8.524 v 7.1869 h 5.563 z m 2.849,-5.5923 h -1.907 v 7.1645 h 1.907 z m 3.387,5.2555 C 20.098,51.6558 19.986,51.274 19.986,50.7349 v -1.0106 c 0,-0.539 0.112,-0.9208 0.314,-1.1454 0.224,-0.2246 0.628,-0.3594 1.211,-0.3594 h 2.625 v -1.5721 h -2.714 c -0.561,0 -1.077,0.0674 -1.503,0.2246 -0.426,0.1347 -0.785,0.3369 -1.077,0.6064 -0.291,0.2695 -0.493,0.5839 -0.65,0.9657 -0.157,0.3818 -0.225,0.8085 -0.225,1.2577 v 1.0556 c 0,0.4716 0.068,0.8984 0.225,1.2577 0.157,0.3818 0.359,0.6962 0.65,0.9657 0.292,0.2696 0.651,0.4717 1.077,0.6064 0.426,0.1348 0.942,0.2246 1.503,0.2246 h 2.759 v -1.5721 h -2.625 c -0.583,-0.0225 -1.009,-0.1348 -1.233,-0.3593 z m 10.766,0.3368 H 26.984 V 50.982 h 4.105 v -1.5272 h -4.105 v -1.2353 h 4.105 v -1.5946 h -5.966 v 7.1869 h 5.966 z m 7.291,-0.1123 c 0,0.0674 0,0.1123 -0.023,0.1572 -0.022,0.045 -0.067,0.045 -0.135,0.045 -0.044,0 -0.089,-0.0225 -0.112,-0.0674 -0.022,-0.0449 -0.044,-0.0899 -0.067,-0.1348 l -1.548,-3.7955 c -0.224,-0.5391 -0.493,-0.9658 -0.852,-1.3027 -0.336,-0.3369 -0.83,-0.4941 -1.436,-0.4941 -0.246,0 -0.493,0.0449 -0.74,0.1348 -0.247,0.0898 -0.448,0.2246 -0.628,0.3818 -0.179,0.1797 -0.314,0.3818 -0.426,0.6288 -0.112,0.2471 -0.157,0.5391 -0.157,0.8759 v 5.2555 h 1.907 v -5.4576 c 0,-0.0674 0,-0.1123 0.022,-0.1572 0.022,-0.0449 0.067,-0.0449 0.135,-0.0449 0.044,0 0.089,0.0224 0.112,0.0674 0.022,0.0449 0.045,0.0898 0.067,0.1347 l 1.548,3.7956 c 0.224,0.5615 0.516,0.9882 0.852,1.3026 0.337,0.3144 0.808,0.4717 1.436,0.4717 0.246,0 0.493,-0.045 0.74,-0.1348 0.247,-0.0898 0.448,-0.2021 0.628,-0.3818 0.179,-0.1797 0.314,-0.3818 0.426,-0.6289 0.112,-0.247 0.157,-0.5614 0.157,-0.8983 V 46.58 H 38.38 Z m 4.956,-1.4823 1.728,0.5166 c 0.314,0.0898 0.538,0.1797 0.673,0.2695 0.112,0.0898 0.179,0.2021 0.179,0.3593 0,0.1348 -0.045,0.2471 -0.135,0.3369 -0.089,0.0899 -0.269,0.1348 -0.515,0.1348 h -3.657 v 1.5721 h 3.387 c 0.471,0 0.875,-0.0674 1.212,-0.1797 0.336,-0.1123 0.628,-0.2695 0.852,-0.4491 0.224,-0.2022 0.404,-0.4268 0.516,-0.6738 0.112,-0.2695 0.157,-0.539 0.157,-0.831 0,-0.5615 -0.18,-1.0106 -0.561,-1.3251 -0.381,-0.3144 -0.92,-0.5839 -1.66,-0.8085 L 43.763,49.028 c -0.18,-0.0449 -0.314,-0.1122 -0.382,-0.1796 -0.089,-0.0674 -0.112,-0.1572 -0.112,-0.292 0,-0.0898 0.045,-0.1797 0.135,-0.247 0.089,-0.0674 0.224,-0.1123 0.426,-0.1123 h 3.679 V 46.6249 H 43.83 c -0.763,0 -1.346,0.1797 -1.772,0.5166 -0.426,0.3593 -0.628,0.831 -0.628,1.4149 0,0.4717 0.157,0.8984 0.471,1.2353 0.291,0.3818 0.762,0.6513 1.435,0.8309 z m 18.753,-3.1667 c -0.27,-0.2695 -0.628,-0.4716 -1.055,-0.6064 -0.426,-0.1347 -0.919,-0.2246 -1.503,-0.2246 H 48.72 v 7.1645 h 5.989 V 52.2172 H 50.604 V 50.982 h 4.105 v -1.5272 h -4.105 v -1.2353 h 8.927 c 0.561,0 0.943,0.1123 1.144,0.3144 0.202,0.2022 0.292,0.5615 0.292,1.0556 v 1.3476 c 0,0.4716 -0.09,0.8085 -0.292,1.0106 -0.201,0.2021 -0.583,0.292 -1.188,0.292 h -1.772 v -3.0095 h -1.907 v 4.5816 h 3.768 c 0.561,0 1.055,-0.0674 1.503,-0.2246 0.426,-0.1347 0.785,-0.3369 1.054,-0.6064 0.27,-0.2695 0.494,-0.5839 0.628,-0.9657 0.135,-0.3818 0.202,-0.8085 0.202,-1.2577 v -1.0556 c 0,-0.4716 -0.067,-0.8983 -0.202,-1.2577 -0.179,-0.4042 -0.403,-0.7187 -0.672,-0.9882 z M 13.212,56.1924 H 9.623 v 7.1645 h 1.907 v -2.3807 h 1.682 c 0.987,0 1.705,-0.1572 2.176,-0.4492 0.471,-0.2919 0.718,-0.831 0.718,-1.617 v -0.7187 c 0,-0.7187 -0.247,-1.2352 -0.718,-1.5497 -0.471,-0.2919 -1.189,-0.4492 -2.176,-0.4492 z m 0.987,2.6727 c 0,0.2246 -0.067,0.3818 -0.202,0.5165 -0.134,0.1348 -0.381,0.1797 -0.718,0.1797 h -1.727 v -1.9764 h 1.727 c 0.337,0 0.584,0.0674 0.718,0.1797 0.135,0.1347 0.202,0.2919 0.202,0.5165 z m 7.066,-2.6727 H 17.07 v 7.1645 h 1.907 v -5.7046 h 2.489 c 0.225,0 0.404,0.0449 0.494,0.1572 0.09,0.1123 0.157,0.247 0.157,0.4492 v 0.3144 c 0,0.1797 -0.045,0.3369 -0.157,0.4492 -0.112,0.1123 -0.247,0.1797 -0.471,0.1797 h -0.942 c -0.314,0 -0.584,0.0898 -0.763,0.247 -0.202,0.1572 -0.292,0.4043 -0.292,0.7187 0,0.1348 0.023,0.292 0.09,0.4716 0.067,0.1797 0.18,0.3594 0.337,0.539 l 1.772,2.1786 h 2.265 l -2.377,-2.9422 h 0.179 c 0.292,0 0.583,-0.0449 0.852,-0.1347 0.27,-0.0899 0.516,-0.2021 0.718,-0.3594 0.202,-0.1572 0.359,-0.3593 0.471,-0.5839 0.112,-0.2246 0.18,-0.4941 0.18,-0.8085 v -0.3818 c 0,-0.6738 -0.225,-1.1679 -0.651,-1.4823 -0.471,-0.3144 -1.144,-0.4717 -2.063,-0.4717 z m 9.981,0.7861 C 30.955,56.709 30.596,56.4844 30.147,56.3272 29.699,56.17 29.205,56.1026 28.622,56.1026 h -0.628 c -0.583,0 -1.099,0.0674 -1.525,0.2246 -0.449,0.1572 -0.808,0.3593 -1.1,0.6513 -0.291,0.2695 -0.493,0.6064 -0.65,1.0107 -0.135,0.3818 -0.224,0.831 -0.224,1.3026 V 60.28 c 0,0.4716 0.067,0.9208 0.224,1.3026 0.135,0.3818 0.359,0.7187 0.65,1.0107 0.292,0.2695 0.651,0.4941 1.1,0.6513 0.448,0.1572 0.942,0.2246 1.525,0.2246 h 0.628 c 0.583,0 1.099,-0.0674 1.525,-0.2246 0.449,-0.1572 0.808,-0.3594 1.099,-0.6513 0.292,-0.2696 0.494,-0.6064 0.651,-1.0107 0.134,-0.3818 0.224,-0.831 0.224,-1.3026 v -0.9882 c 0,-0.4716 -0.067,-0.9208 -0.224,-1.3026 -0.135,-0.4043 -0.359,-0.7412 -0.651,-1.0107 z m -1.144,3.3689 c 0,0.5614 -0.112,0.9657 -0.314,1.2127 -0.224,0.2471 -0.583,0.3594 -1.099,0.3594 h -0.74 c -0.516,0 -0.875,-0.1123 -1.099,-0.3594 -0.224,-0.2245 -0.314,-0.6288 -0.314,-1.2127 v -1.1679 c 0,-0.5615 0.112,-0.9657 0.314,-1.1903 0.224,-0.2246 0.583,-0.3594 1.099,-0.3594 h 0.74 c 0.516,0 0.875,0.1123 1.099,0.3594 0.225,0.247 0.314,0.6288 0.314,1.1903 z m 9.287,-3.324 c -0.27,-0.2695 -0.628,-0.4716 -1.055,-0.6064 -0.426,-0.1347 -0.919,-0.2246 -1.503,-0.2246 h -3.723 v 7.1645 h 3.723 c 0.561,0 1.055,-0.0674 1.503,-0.2246 0.427,-0.1348 0.785,-0.3369 1.055,-0.6064 0.269,-0.2695 0.493,-0.584 0.628,-0.9658 0.134,-0.3818 0.202,-0.8085 0.202,-1.2577 v -1.0555 c 0,-0.4717 -0.068,-0.8984 -0.202,-1.2577 -0.135,-0.3818 -0.337,-0.6963 -0.628,-0.9658 z M 38.222,60.28 c 0,0.5839 -0.112,0.9882 -0.314,1.2128 -0.202,0.247 -0.628,0.3593 -1.256,0.3593 h -1.637 v -4.1549 h 1.682 c 0.606,0 1.009,0.1123 1.211,0.3593 0.202,0.2246 0.314,0.6289 0.314,1.2128 z m 8.031,0.6738 c 0,0.3368 -0.09,0.6063 -0.247,0.7636 -0.157,0.1572 -0.426,0.247 -0.785,0.247 h -1.099 c -0.382,0 -0.651,-0.0898 -0.808,-0.247 -0.157,-0.1573 -0.224,-0.4268 -0.224,-0.7636 v -4.7614 h -1.907 v 4.5817 c 0,0.8534 0.224,1.5272 0.696,1.9988 0.448,0.4717 1.211,0.7187 2.287,0.7187 h 1.032 c 0.561,0 1.032,-0.0674 1.413,-0.1797 0.382,-0.1122 0.696,-0.2919 0.92,-0.539 0.224,-0.2246 0.381,-0.5165 0.494,-0.8534 0.089,-0.3369 0.157,-0.7187 0.157,-1.1454 v -4.5817 h -1.907 v 4.7614 z m 8.366,-4.7614 h -2.063 c -0.561,0 -1.077,0.0674 -1.503,0.2246 -0.427,0.1348 -0.785,0.3369 -1.077,0.6064 -0.292,0.2695 -0.494,0.584 -0.651,0.9658 -0.157,0.3818 -0.224,0.8085 -0.224,1.2577 v 1.0555 c 0,0.4717 0.067,0.8984 0.224,1.2577 0.157,0.3818 0.359,0.6963 0.651,0.9658 0.292,0.2695 0.65,0.4716 1.077,0.6064 0.426,0.1347 0.942,0.2246 1.503,0.2246 h 2.198 V 61.7847 H 52.69 c -0.606,0 -1.032,-0.1123 -1.256,-0.3593 C 51.21,61.2008 51.097,60.819 51.097,60.28 v -1.0331 c 0,-0.539 0.113,-0.9209 0.315,-1.1454 0.224,-0.2246 0.628,-0.3369 1.211,-0.3369 h 4.665 v 5.5923 h 1.907 v -5.5923 h 2.714 v -1.5722 z"
     fill="#000000"
     id="path12"
     sodipodi:nodetypes="cccccccccccccsscsccsccsssccsscccccccccccccccccscsccccsscssccsssccccsscssccscccscsccscccsscccscsccscsccccsccccccccccscsscsccccscccssccsccccsssscsscsccscsssccccssssssscssccccscsssscsccsscccsscccsscccssccscsscsscsscssccsccscccssccscsccscsscsssssccscsscccscccccscsssscscsccscsscsccccccc" />
</svg>
